<svg width="265" height="256" viewBox="0 0 265 256" fill="none" xmlns="http://www.w3.org/2000/svg">
<line y1="-0.8" x2="177.907" y2="-0.8" transform="matrix(0.967666 -0.252234 0.285555 0.958362 41.6885 90.7485)" stroke="#B9AEAE" stroke-width="1.6"/>
<line y1="-0.8" x2="181.314" y2="-0.8" transform="matrix(0.965053 -0.262054 0.296448 0.955049 41.6885 109.226)" stroke="#B9AEAE" stroke-width="1.6"/>
<line y1="-0.8" x2="181.314" y2="-0.8" transform="matrix(0.965053 -0.262054 0.296448 0.955049 41.6885 148.821)" stroke="#B9AEAE" stroke-width="1.6"/>
<line y1="-0.8" x2="181.314" y2="-0.8" transform="matrix(0.965053 -0.262054 0.296448 0.955049 41.6885 132.983)" stroke="#B9AEAE" stroke-width="1.6"/>
<line y1="-0.8" x2="181.314" y2="-0.8" transform="matrix(0.965053 -0.262054 0.296448 0.955049 41.6885 164.659)" stroke="#B9AEAE" stroke-width="1.6"/>
<line y1="-0.8" x2="181.314" y2="-0.8" transform="matrix(0.965053 -0.262054 0.296448 0.955049 41.6885 183.137)" stroke="#B9AEAE" stroke-width="1.6"/>
<line y1="-0.8" x2="149.28" y2="-0.8" transform="matrix(0.964182 -0.26524 0.299976 0.953947 72.7329 214.813)" stroke="#B9AEAE" stroke-width="1.6"/>
<line y1="-0.8" x2="157.459" y2="-0.8" transform="matrix(0.967867 -0.251462 0.284698 0.958617 64.2666 198.975)" stroke="#B9AEAE" stroke-width="1.6"/>
<line y1="-0.8" x2="167.008" y2="-0.8" transform="matrix(-0.963225 -0.268696 0.3038 -0.952736 213.844 85.4692)" stroke="#B9AEAE" stroke-width="1.6"/>
<line y1="-0.8" x2="173.157" y2="-0.8" transform="matrix(-0.961616 -0.274398 -0.283281 0.959037 213.844 103.947)" stroke="#B9AEAE" stroke-width="1.6"/>
<line y1="-0.8" x2="173.157" y2="-0.8" transform="matrix(-0.961616 -0.274398 -0.283281 0.959037 213.844 143.542)" stroke="#B9AEAE" stroke-width="1.6"/>
<line y1="-0.8" x2="173.157" y2="-0.8" transform="matrix(-0.961616 -0.274398 -0.283281 0.959037 213.844 127.704)" stroke="#B9AEAE" stroke-width="1.6"/>
<line y1="-0.8" x2="173.157" y2="-0.8" transform="matrix(-0.961616 -0.274398 -0.283281 0.959037 213.844 159.38)" stroke="#B9AEAE" stroke-width="1.6"/>
<line y1="-0.8" x2="173.157" y2="-0.8" transform="matrix(-0.961616 -0.274398 -0.283281 0.959037 213.844 177.857)" stroke="#B9AEAE" stroke-width="1.6"/>
<line y1="-0.8" x2="154.729" y2="-0.8" transform="matrix(-0.966704 -0.255898 0.289623 -0.957141 196.91 209.533)" stroke="#B9AEAE" stroke-width="1.6"/>
<line y1="-0.8" x2="173.157" y2="-0.8" transform="matrix(-0.961616 -0.274398 -0.283281 0.959037 213.844 201.614)" stroke="#B9AEAE" stroke-width="1.6"/>
<rect width="27.9449" height="147.556" rx="13.9725" transform="matrix(-0.890155 0.455659 -0.505032 -0.863101 100.396 242.356)" fill="url(#paint0_linear_942_1772)"/>
<rect width="30.5906" height="146.943" rx="15.2953" transform="matrix(0.920592 0.390527 -0.436323 0.89979 64.1147 0)" fill="url(#paint1_linear_942_1772)"/>
<rect width="30.5906" height="146.943" rx="15.2953" transform="matrix(0.920592 0.390527 -0.436323 0.89979 69.1143 1)" fill="url(#paint2_linear_942_1772)"/>
<rect width="27.9449" height="147.556" rx="13.9725" transform="matrix(-0.890155 0.455659 -0.505032 -0.863101 104.396 239.266)" fill="url(#paint3_linear_942_1772)"/>
<rect width="27.9449" height="147.556" rx="13.9725" transform="matrix(-0.99878 -0.0493765 -0.0069101 -0.999976 99.7246 246.774)" fill="url(#paint4_linear_942_1772)"/>
<rect width="30.9165" height="147.082" rx="15.4583" transform="matrix(0.887781 0.460267 0.500249 -0.865882 163 241.356)" fill="url(#paint5_linear_942_1772)"/>
<rect width="30.1005" height="146.591" rx="15.0502" transform="matrix(-0.918786 0.394755 0.431837 0.901952 199.656 0)" fill="url(#paint6_linear_942_1772)"/>
<rect width="30.1005" height="146.591" rx="15.0502" transform="matrix(-0.918786 0.394755 0.431837 0.901952 195.697 1)" fill="url(#paint7_linear_942_1772)"/>
<rect width="30.9165" height="147.082" rx="15.4583" transform="matrix(0.887781 0.460267 0.500249 -0.865882 158.975 237.77)" fill="url(#paint8_linear_942_1772)"/>
<rect width="30.9165" height="147.082" rx="15.4583" transform="matrix(0.998243 -0.0592488 -0.0136924 -0.999906 164.795 247.53)" fill="url(#paint9_linear_942_1772)"/>
<defs>
<linearGradient id="paint0_linear_942_1772" x1="18.092" y1="157.004" x2="13.8269" y2="-12.6744" gradientUnits="userSpaceOnUse">
<stop stop-color="#7799CF"/>
<stop offset="1" stop-color="#27539A"/>
</linearGradient>
<linearGradient id="paint1_linear_942_1772" x1="16.2503" y1="0.170975" x2="13.0981" y2="149.354" gradientUnits="userSpaceOnUse">
<stop stop-color="#880A00"/>
<stop offset="1" stop-color="#FF948C"/>
</linearGradient>
<linearGradient id="paint2_linear_942_1772" x1="16.2503" y1="0.170975" x2="13.0981" y2="149.354" gradientUnits="userSpaceOnUse">
<stop stop-color="#D12516"/>
<stop offset="1" stop-color="#FF948C"/>
</linearGradient>
<linearGradient id="paint3_linear_942_1772" x1="18.092" y1="157.004" x2="13.8269" y2="-12.6744" gradientUnits="userSpaceOnUse">
<stop stop-color="#AEC1DE"/>
<stop offset="1" stop-color="#547DBF"/>
</linearGradient>
<linearGradient id="paint4_linear_942_1772" x1="18.092" y1="157.004" x2="13.8269" y2="-12.6744" gradientUnits="userSpaceOnUse">
<stop stop-color="#AEC1DE"/>
<stop offset="1" stop-color="#547DBF"/>
</linearGradient>
<linearGradient id="paint5_linear_942_1772" x1="27.0459" y1="6.02608" x2="19.5462" y2="167.204" gradientUnits="userSpaceOnUse">
<stop stop-color="#AF8000"/>
<stop offset="1" stop-color="#FFF1CB"/>
</linearGradient>
<linearGradient id="paint6_linear_942_1772" x1="15.0502" y1="0" x2="15.0502" y2="146.591" gradientUnits="userSpaceOnUse">
<stop stop-color="#00651D"/>
<stop offset="1" stop-color="#79E799"/>
</linearGradient>
<linearGradient id="paint7_linear_942_1772" x1="15.0502" y1="0" x2="15.0502" y2="146.591" gradientUnits="userSpaceOnUse">
<stop stop-color="#30A953"/>
<stop offset="1" stop-color="#79E799"/>
</linearGradient>
<linearGradient id="paint8_linear_942_1772" x1="27.0459" y1="6.02608" x2="19.5462" y2="167.204" gradientUnits="userSpaceOnUse">
<stop stop-color="#FBBC12"/>
<stop offset="1" stop-color="#FFF1CB"/>
</linearGradient>
<linearGradient id="paint9_linear_942_1772" x1="27.0459" y1="6.02608" x2="19.5462" y2="167.204" gradientUnits="userSpaceOnUse">
<stop stop-color="#FBBC12"/>
<stop offset="1" stop-color="#FFF1CB"/>
</linearGradient>
</defs>
</svg>
